<svg width="24" height="23" viewBox="0 0 24 23" fill="none" xmlns="http://www.w3.org/2000/svg">
<path fill-rule="evenodd" clip-rule="evenodd" d="M16.334 20.7393H7.665C4.26137 20.7393 2 18.4491 2 15.1622V7.46209C2 4.17858 4.2681 1.885 7.665 1.885H16.334C19.7378 1.885 22 4.17533 22 7.46209V15.1622C22 18.4489 19.7378 20.7393 16.334 20.7393ZM7.665 19.3252H16.334C18.8845 19.3252 20.5 17.6896 20.5 15.1622V7.46209C20.5 4.93464 18.8845 3.29907 16.334 3.29907H7.665C5.12096 3.29907 3.5 4.93824 3.5 7.46209V15.1622C3.5 17.6899 5.11476 19.3252 7.665 19.3252Z" fill="#F97701"/>
<path d="M7.665 20.9893H16.334V20.4893H7.665V20.9893ZM1.75 15.1622C1.75 16.8644 2.33665 18.3252 3.38003 19.3608C4.4234 20.3963 5.90577 20.9893 7.665 20.9893V20.4893C6.0206 20.4893 4.67047 19.9371 3.73225 19.0059C2.79404 18.0747 2.25 16.7469 2.25 15.1622H1.75ZM1.75 7.46209V15.1622H2.25V7.46209H1.75ZM7.665 1.635C5.90893 1.635 4.42665 2.2289 3.38259 3.26476C2.3385 4.30063 1.75 5.76129 1.75 7.46209H2.25C2.25 5.87938 2.79555 4.5515 3.73474 3.6197C4.67395 2.68789 6.02417 2.135 7.665 2.135V1.635ZM16.334 1.635H7.665V2.135H16.334V1.635ZM22.25 7.46209C22.25 5.7599 21.6631 4.29916 20.6195 3.26355C19.5759 2.22796 18.0933 1.635 16.334 1.635V2.135C17.9785 2.135 19.3289 2.6872 20.2673 3.61846C21.2058 4.54971 21.75 5.87752 21.75 7.46209H22.25ZM22.25 15.1622V7.46209H21.75V15.1622H22.25ZM16.334 20.9893C18.0933 20.9893 19.5759 20.3963 20.6195 19.3607C21.6631 18.3251 22.25 16.8644 22.25 15.1622H21.75C21.75 16.7467 21.2058 18.0745 20.2673 19.0058C19.3289 19.9371 17.9785 20.4893 16.334 20.4893V20.9893ZM16.334 19.0752H7.665V19.5752H16.334V19.0752ZM20.25 15.1622C20.25 16.3718 19.8645 17.3449 19.1964 18.015C18.5285 18.6849 17.5548 19.0752 16.334 19.0752V19.5752C17.6637 19.5752 18.773 19.1477 19.5505 18.368C20.3278 17.5884 20.75 16.48 20.75 15.1622H20.25ZM20.25 7.46209V15.1622H20.75V7.46209H20.25ZM16.334 3.54907C17.5548 3.54907 18.5285 3.93939 19.1964 4.6093C19.8645 5.27934 20.25 6.25244 20.25 7.46209H20.75C20.75 6.14429 20.3278 5.03588 19.5505 4.25627C18.773 3.47653 17.6637 3.04907 16.334 3.04907V3.54907ZM7.665 3.54907H16.334V3.04907H7.665V3.54907ZM3.75 7.46209C3.75 6.25455 4.13671 5.28133 4.80551 4.61067C5.47418 3.94011 6.4477 3.54907 7.665 3.54907V3.04907C6.33826 3.04907 5.22927 3.47761 4.45146 4.25761C3.67376 5.03749 3.25 6.14578 3.25 7.46209H3.75ZM3.75 15.1622V7.46209H3.25V15.1622H3.75ZM7.665 19.0752C6.4443 19.0752 5.47093 18.6849 4.80322 18.0151C4.13538 17.3451 3.75 16.372 3.75 15.1622H3.25C3.25 16.4801 3.672 17.5885 4.4491 18.3681C5.22633 19.1478 6.33545 19.5752 7.665 19.5752V19.0752Z" fill="#F4F4F4"/>
</svg>
